HIERARCHY
ROOT SpineBase
{
  OFFSET 0.000000 0.000000 0.000000
  CHANNELS 6 Xposition Yposition Zposition Zrotation Xrotation Yrotation
  JOINT SpineMid
  {
    OFFSET 0.000000 31.640899 0.000000
    CHANNELS 3 Zrotation Xrotation Yrotation
    JOINT SpineShoulder
    {
      OFFSET 0.093760 23.408141 -0.775628
      CHANNELS 3 Zrotation Xrotation Yrotation
      JOINT Neck
      {
        OFFSET 0.079703 7.705850 -0.590372
        CHANNELS 3 Zrotation Xrotation Yrotation
        JOINT Head
        {
          OFFSET 3.464685 13.828813 1.481135
          CHANNELS 3 Zrotation Xrotation Yrotation
          End Site
          {
            OFFSET 0 0 0
          }
        }
      }
      JOINT ShoulderLeft
      {
        OFFSET -14.040268 -4.236060 -8.857915
        CHANNELS 3 Zrotation Xrotation Yrotation
        JOINT ElbowLeft
        {
          OFFSET -8.092755 -24.607260 -2.522828
          CHANNELS 3 Zrotation Xrotation Yrotation
          JOINT WristLeft
          {
            OFFSET -2.185177 -25.115021 -6.464770
            CHANNELS 3 Zrotation Xrotation Yrotation
            JOINT HandLeft
            {
              OFFSET 0.077544 -6.822151 -3.881293
              CHANNELS 3 Zrotation Xrotation Yrotation
              JOINT HandTipLeft
              {
                OFFSET 0.392881 -6.480038 -0.360793
                CHANNELS 3 Zrotation Xrotation Yrotation
                End Site
                {
                  OFFSET 0 0 0
                }
              }
              JOINT ThumbLeft
              {
                OFFSET -0.523073 0.443033 -4.828955
                CHANNELS 3 Zrotation Xrotation Yrotation
                End Site
                {
                  OFFSET 0 0 0
                }
              }
            }
          }
        }
      }
      JOINT ShoulderRight
      {
        OFFSET 13.940318 -5.152947 5.506938
        CHANNELS 3 Zrotation Xrotation Yrotation
        JOINT ElbowRight
        {
          OFFSET 0.627234 -27.329705 0.597539
          CHANNELS 3 Zrotation Xrotation Yrotation
          JOINT WristRight
          {
            OFFSET 7.602400 -24.139284 6.979319
            CHANNELS 3 Zrotation Xrotation Yrotation
            JOINT HandRight
            {
              OFFSET -0.561597 -5.132572 1.075936
              CHANNELS 3 Zrotation Xrotation Yrotation
              JOINT HandTipRight
              {
                OFFSET -0.085536 -6.891543 1.039576
                CHANNELS 3 Zrotation Xrotation Yrotation
                End Site
                {
                  OFFSET 0 0 0
                }
              }
              JOINT ThumbRight
              {
                OFFSET 1.750566 -1.390508 -1.444500
                CHANNELS 3 Zrotation Xrotation Yrotation
                End Site
                {
                  OFFSET 0 0 0
                }
              }
            }
          }
        }
      }
    }
  }
  JOINT HipLeft
  {
    OFFSET -5.734216 0.605693 -6.722000
    CHANNELS 3 Zrotation Xrotation Yrotation
    JOINT KneeLeft
    {
      OFFSET -5.807557 -35.396305 0.691190
      CHANNELS 3 Zrotation Xrotation Yrotation
      JOINT AnkleLeft
      {
        OFFSET -3.130752 -42.431336 10.720583
        CHANNELS 3 Zrotation Xrotation Yrotation
        JOINT FootLeft
        {
          OFFSET 0.769718 -7.493556 -9.325029
          CHANNELS 3 Zrotation Xrotation Yrotation
          End Site
          {
            OFFSET 0 0 0
          }
        }
      }
    }
  }
  JOINT HipRight
  {
    OFFSET 6.854362 -0.112478 -0.819724
    CHANNELS 3 Zrotation Xrotation Yrotation
    JOINT KneeRight
    {
      OFFSET -0.456080 -33.497009 5.177338
      CHANNELS 3 Zrotation Xrotation Yrotation
      JOINT AnkleRight
      {
        OFFSET -5.982883 -44.396769 8.135649
        CHANNELS 3 Zrotation Xrotation Yrotation
        JOINT FootRight
        {
          OFFSET 5.063658 -8.552984 -6.819292
          CHANNELS 3 Zrotation Xrotation Yrotation
          End Site
          {
            OFFSET 0 0 0
          }
        }
      }
    }
  }
}
MOTION
Frames: 5
Frame Time: 0.033333
-63.028310 86.559241 434.084894 -0.000000 0.000000 -25.119981 0.000000 0.000000 25.119981 -0.000000 0.000000 0.000000 -0.000000 0.000000 0.000000 0.000000 0.000000 0.000000 -0.000000 0.000000 0.000000 -0.000000 0.000000 0.000000 -0.000000 0.000000 0.000000 -0.000000 0.000000 0.000000 0.000000 0.000000 0.000000 0.000000 0.000000 0.000000 -0.000000 0.000000 0.000000 -0.000000 0.000000 0.000000 -0.000000 0.000000 0.000000 -0.000000 0.000000 0.000000 0.000000 0.000000 0.000000 0.000000 0.000000 0.000000 0.000000 0.000000 25.119981 -0.000000 0.000000 0.000000 -0.000000 0.000000 0.000000 0.000000 0.000000 0.000000 0.000000 0.000000 25.119981 -0.000000 0.000000 0.000000 -0.000000 0.000000 0.000000 0.000000 0.000000 0.000000
-63.063812 86.522859 434.073857 -0.016888 -0.135594 -24.735365 -0.041398 0.130220 24.735392 -0.000000 0.000000 0.000000 -0.000000 0.000000 0.000000 0.000000 0.000000 0.000000 0.900418 -0.757426 0.163272 0.269324 1.271104 -0.516886 1.454628 -5.203227 -1.088961 -3.385639 7.174905 1.926468 0.000000 0.000000 0.000000 0.000000 0.000000 0.000000 -0.441382 1.399934 0.027883 0.657621 -2.981421 -0.442117 5.531805 7.628489 0.533008 -5.358054 -4.218739 -0.773181 0.000000 0.000000 0.000000 0.000000 0.000000 0.000000 -0.041398 0.130220 24.735392 -0.000000 0.000000 0.000000 1.256979 -1.765348 -1.757820 0.000000 0.000000 0.000000 -0.041398 0.130220 24.735392 -0.422563 -0.737514 0.019202 -1.448455 1.152325 1.755428 0.000000 0.000000 0.000000
-63.063402 86.495062 434.045126 -0.000363 -0.245776 -24.489944 -0.101552 0.223815 24.490142 -0.000000 0.000000 0.000000 -0.000000 0.000000 0.000000 0.000000 0.000000 0.000000 1.805867 -1.448029 0.315958 0.473659 2.374197 -1.010165 2.725872 -9.995578 -1.866769 -6.579683 13.473602 3.979354 0.000000 0.000000 0.000000 0.000000 0.000000 0.000000 -0.686820 2.250699 0.050165 1.032698 -4.768053 -0.689273 10.268735 13.563783 0.237621 -9.935739 -7.459036 -1.839951 0.000000 0.000000 0.000000 0.000000 0.000000 0.000000 -0.101552 0.223815 24.490142 -0.000000 0.000000 0.000000 2.137223 -3.188612 -3.026340 0.000000 0.000000 0.000000 -0.101552 0.223815 24.490142 -0.782118 -1.385023 0.033770 -2.780218 1.909809 3.247992 0.000000 0.000000 0.000000
-63.027079 86.475851 433.998702 0.049548 -0.330641 -24.384426 -0.181637 0.280690 24.385014 -0.000000 0.000000 0.000000 0.266732 0.835524 -0.239802 0.000000 0.000000 0.000000 2.713716 -2.072073 0.456746 0.606211 3.306709 -1.469412 3.798711 -14.259516 -2.375440 -9.423313 18.747716 5.996088 0.000000 0.000000 0.000000 0.000000 0.000000 0.000000 -0.735600 2.552346 0.058929 1.133004 -5.353937 -0.759354 14.259916 17.726894 -0.438397 -13.713570 -9.754600 -2.984624 0.000000 0.000000 0.000000 0.000000 0.000000 0.000000 -0.181637 0.280690 24.385014 -0.493140 -0.703083 -0.075604 3.210490 -3.603313 -3.855374 0.000000 0.000000 0.000000 -0.181637 0.280690 24.385014 -1.066514 -1.922511 0.045565 -3.981310 2.270692 4.437539 0.000000 0.000000 0.000000
-62.954843 86.465226 433.934583 0.132860 -0.390250 -24.419170 -0.282311 0.300413 24.420363 -0.000000 0.000000 0.000000 0.280429 0.984798 -0.279098 0.000000 0.000000 0.000000 3.621466 -2.630213 0.584370 0.660547 4.067156 -1.884845 4.656774 -17.914994 -2.665906 -11.731669 22.924464 7.791553 0.000000 0.000000 0.000000 0.000000 0.000000 0.000000 -0.587640 2.305600 0.051928 0.959769 -4.729593 -0.655990 17.519782 20.189959 -1.150837 -16.745487 -11.239720 -4.063868 0.000000 0.000000 0.000000 0.000000 0.000000 0.000000 -0.282311 0.300413 24.420363 -0.639404 -0.806348 -0.106322 3.683753 -4.350666 -4.356979 0.000000 0.000000 0.000000 -0.447019 -0.580168 24.350573 -0.748675 -1.599371 0.138751 -5.046174 2.238289 5.294375 0.000000 0.000000 0.000000
